<svg xmlns="http://www.w3.org/2000/svg" xmlns:xlink="http://www.w3.org/1999/xlink" width="1920" height="1080" viewBox="0 0 1920 1080">
  <defs>
    <filter id="Retângulo_4225" x="729" y="33" width="295" height="207" filterUnits="userSpaceOnUse">
      <feOffset dy="3" input="SourceAlpha"/>
      <feGaussianBlur stdDeviation="3" result="blur"/>
      <feFlood flood-opacity="0.161"/>
      <feComposite operator="in" in2="blur"/>
      <feComposite in="SourceGraphic"/>
    </filter>
    <filter id="Retângulo_4229" x="1024" y="33" width="295" height="207" filterUnits="userSpaceOnUse">
      <feOffset dy="3" input="SourceAlpha"/>
      <feGaussianBlur stdDeviation="3" result="blur-2"/>
      <feFlood flood-opacity="0.161"/>
      <feComposite operator="in" in2="blur-2"/>
      <feComposite in="SourceGraphic"/>
    </filter>
    <filter id="Retângulo_4227" x="1614" y="33" width="295" height="207" filterUnits="userSpaceOnUse">
      <feOffset dy="3" input="SourceAlpha"/>
      <feGaussianBlur stdDeviation="3" result="blur-3"/>
      <feFlood flood-opacity="0.161"/>
      <feComposite operator="in" in2="blur-3"/>
      <feComposite in="SourceGraphic"/>
    </filter>
    <filter id="Retângulo_4226" x="434" y="33" width="295" height="207" filterUnits="userSpaceOnUse">
      <feOffset dy="3" input="SourceAlpha"/>
      <feGaussianBlur stdDeviation="3" result="blur-4"/>
      <feFlood flood-opacity="0.161"/>
      <feComposite operator="in" in2="blur-4"/>
      <feComposite in="SourceGraphic"/>
    </filter>
    <filter id="Retângulo_4228" x="1319" y="33" width="295" height="207" filterUnits="userSpaceOnUse">
      <feOffset dy="3" input="SourceAlpha"/>
      <feGaussianBlur stdDeviation="3" result="blur-5"/>
      <feFlood flood-opacity="0.161"/>
      <feComposite operator="in" in2="blur-5"/>
      <feComposite in="SourceGraphic"/>
    </filter>
    <clipPath id="clip-path">
      <rect id="Retângulo_1082" data-name="Retângulo 1082" width="24" height="24" fill="none"/>
    </clipPath>
    <clipPath id="clip-path-2">
      <rect id="Retângulo_3267" data-name="Retângulo 3267" width="25.198" height="18.163" fill="#009f98" stroke="#009f98" stroke-width="0.2"/>
    </clipPath>
    <clipPath id="clip-Dashboard_ContextoGrupo_24-04-2024">
      <rect width="1920" height="1080"/>
    </clipPath>
  </defs>
  <g id="Dashboard_ContextoGrupo_24-04-2024" clip-path="url(#clip-Dashboard_ContextoGrupo_24-04-2024)">
    <rect width="1920" height="1080" fill="#fff"/>
    <path id="Shape" d="M0,0H12.624V11.835H0Z" transform="translate(259.147 483.875)" fill="none"/>
    <rect id="Retângulo_4224" data-name="Retângulo 4224" width="393" height="47" transform="translate(16 38)" fill="#dfe7e9"/>
    <text id="Selecione_uma_empresa_ou_All_para_Grupo_Económico" data-name="Selecione uma empresa ou &quot;All&quot; para Grupo Económico" transform="translate(18 660)" fill="#222" font-size="15" font-family="ArialMT, Arial"><tspan x="0" y="0">Selecione uma empresa ou &quot;All&quot; para Grupo Económico</tspan></text>
    <rect id="Retângulo_742" data-name="Retângulo 742" width="1457" height="47" transform="translate(443 251)" fill="#dfe7e9"/>
    <text id="Equipamento" transform="translate(457 280)" fill="#002b3e" font-size="18" font-family="Arial-BoldMT, Arial" font-weight="700"><tspan x="0" y="0">Equipamento</tspan></text>
    <g transform="matrix(1, 0, 0, 1, 0, 0)" filter="url(#Retângulo_4225)">
      <rect id="Retângulo_4225-2" data-name="Retângulo 4225" width="277" height="189" rx="10" transform="translate(738 39)" fill="#fff"/>
    </g>
    <g transform="matrix(1, 0, 0, 1, 0, 0)" filter="url(#Retângulo_4229)">
      <rect id="Retângulo_4229-2" data-name="Retângulo 4229" width="277" height="189" rx="10" transform="translate(1033 39)" fill="#fff"/>
    </g>
    <g transform="matrix(1, 0, 0, 1, 0, 0)" filter="url(#Retângulo_4227)">
      <rect id="Retângulo_4227-2" data-name="Retângulo 4227" width="277" height="189" rx="10" transform="translate(1623 39)" fill="#fff"/>
    </g>
    <g transform="matrix(1, 0, 0, 1, 0, 0)" filter="url(#Retângulo_4226)">
      <rect id="Retângulo_4226-2" data-name="Retângulo 4226" width="277" height="189" rx="10" transform="translate(443 39)" fill="#fff"/>
    </g>
    <g transform="matrix(1, 0, 0, 1, 0, 0)" filter="url(#Retângulo_4228)">
      <rect id="Retângulo_4228-2" data-name="Retângulo 4228" width="277" height="189" rx="10" transform="translate(1328 39)" fill="#fff"/>
    </g>
    <g id="Grupo_20559" data-name="Grupo 20559" transform="translate(457.909 45.001)">
      <g id="ic-ilustrativo-investimento" transform="translate(0 0)">
        <rect id="Rectangle" width="50" height="49" transform="translate(0.091 0)" fill="none"/>
        <g id="investimento" transform="translate(3.206 6.826)">
          <g id="Group" transform="translate(3.167 8.25)">
            <path id="Exclusão_18" data-name="Exclusão 18" d="M34.969,27.487H.751a.752.752,0,0,1,0-1.5h.985V19.2a2.03,2.03,0,0,1,2.026-2.027H7.449A2.03,2.03,0,0,1,9.475,19.2v6.786h4.189V12.878a2.024,2.024,0,0,1,2.019-2.024h3.686A2.028,2.028,0,0,1,21.4,12.878V25.984h4.189V2.02A2.025,2.025,0,0,1,27.61,0H31.3a2.021,2.021,0,0,1,2.019,2.02V25.984h1.654a.752.752,0,0,1,0,1.5ZM15.683,12.362a.517.517,0,0,0-.517.516V25.984h4.727V12.878a.515.515,0,0,0-.524-.516ZM3.762,18.675a.514.514,0,0,0-.516.523v6.786H7.965V19.2a.52.52,0,0,0-.516-.523ZM27.61,1.5a.521.521,0,0,0-.524.516V25.977h4.727V2.02A.524.524,0,0,0,31.3,1.5Z" transform="translate(0)" fill="#475c6d" stroke="rgba(0,0,0,0)" stroke-miterlimit="10" stroke-width="1"/>
            <path id="Path" d="M4.724,7.3H0V.518A.518.518,0,0,1,.518,0H4.206a.518.518,0,0,1,.518.518Z" transform="translate(3.243 18.677)" fill="#002b3e" opacity="0.4"/>
            <path id="Path-2" data-name="Path" d="M4.724,13.621H0V.518A.518.518,0,0,1,.518,0H4.206a.518.518,0,0,1,.518.518Z" transform="translate(15.166 12.36)" fill="#002b3e" opacity="0.4"/>
            <path id="Path-3" data-name="Path" d="M4.724,24.477H0V.518A.518.518,0,0,1,.518,0H4.206a.518.518,0,0,1,.518.518Z" transform="translate(27.09 1.503)" fill="#002b3e" opacity="0.4"/>
          </g>
          <g id="stats" transform="matrix(0.978, -0.208, 0.208, 0.978, 0, 5.661)">
            <path id="Path-4" data-name="Path" d="M26.352.006a.78.78,0,0,1,.877.774V4.514a.78.78,0,0,1-1.561,0V3.382l-.271-.1a34,34,0,0,1-7.044,6.5,36.089,36.089,0,0,1-8.385,4.271,36.726,36.726,0,0,1-6.45,1.669A24.36,24.36,0,0,1,1,16.02l-.219.008a.78.78,0,0,1-.024-1.56l.327-.017c.506-.035,1.281-.121,2.226-.275a35.228,35.228,0,0,0,6.2-1.611A33.131,33.131,0,0,0,24.354,2.094l-.138-.248-1.4.175A.78.78,0,0,1,22.618.473Z" transform="translate(0 0)" fill="#475c6d"/>
          </g>
        </g>
      </g>
    </g>
    <g id="Grupo_20560" data-name="Grupo 20560" transform="translate(750.818 44.999)">
      <g id="ic-ilustrativo-PPR_s" data-name="ic-ilustrativo-PPR&apos;s" transform="translate(0.182 0)">
        <rect id="Retângulo_1027" data-name="Retângulo 1027" width="49" height="49" fill="none"/>
        <g id="Grupo_7419" data-name="Grupo 7419" transform="translate(5.126 7.532)">
          <g id="Group-2" data-name="Group" transform="translate(20.579 14.232)">
            <path id="Path-5" data-name="Path" d="M50.389,35.726s.407-.591.582-.9a8.268,8.268,0,0,0,.714-6.476,8.091,8.091,0,0,0-.544-1.337,8.4,8.4,0,0,0-11.373-3.438h0a8.637,8.637,0,0,0-3.623,3.53,6.518,6.518,0,0,0-.656,1.5" transform="translate(-33.352 -22.578)" fill="#fff" stroke="#475c6d" stroke-miterlimit="10" stroke-width="1.08"/>
            <g id="Oval" transform="translate(0 3.067)">
              <circle id="Elipse_90" data-name="Elipse 90" cx="8.58" cy="8.58" r="8.58" fill="#fff" stroke="#475c6d" stroke-miterlimit="10" stroke-width="1.08"/>
            </g>
            <g id="Grupo_7416" data-name="Grupo 7416" transform="translate(5.655 7.462)">
              <path id="Rectangle-path" d="M43.354,36.964H42.309a3.135,3.135,0,0,1-3.135-3.135h0V31.74a3.135,3.135,0,0,1,3.135-3.135h1.045" transform="translate(-38.129 -28.605)" fill="none" stroke="#475c6d" stroke-linecap="round" stroke-linejoin="round" stroke-width="1.08"/>
              <path id="Shape-2" d="M38.33,31.137h4.181" transform="translate(-38.33 -28.002)" fill="none" stroke="#475c6d" stroke-linecap="round" stroke-linejoin="round" stroke-width="1.08"/>
              <path id="Shape-3" d="M38.33,32.825h4.181" transform="translate(-38.33 -27.6)" fill="none" stroke="#475c6d" stroke-linecap="round" stroke-linejoin="round" stroke-width="1.08"/>
            </g>
          </g>
          <g id="Grupo_7418" data-name="Grupo 7418">
            <path id="Rectangle-2" data-name="Rectangle" d="M24.661,12.509c3.023.406,4.944-1.664,8.029.233,3.53-1.6-1.255,3.98.437,5.113,14.4,9.642,7.96,25.016-5.237,23.813-6.273-.573-12.495-8.221-9.276-14.579,3.85-7.6,6.338-7.484,7.256-9.476C26.431,16.4,26.111,14.483,24.661,12.509Z" transform="translate(-16.998 -10.882)" fill="#99aab1"/>
            <g id="Grupo_7417" data-name="Grupo 7417">
              <path id="Caminho_5100" data-name="Caminho 5100" d="M35.838,29.25l.026-.11-.24.935Q35.741,29.677,35.838,29.25Z" transform="translate(-12.74 -6.784)" fill="#475c6d"/>
              <path id="Caminho_5101" data-name="Caminho 5101" d="M41.264,27.078c-.948-3.634-5.2-7.043-7.7-9.513.047-.194,1.638-4.534,1.524-4.617a1.272,1.272,0,0,0-2.162-.9.743.743,0,0,1-1.062.007c-3-2.625-4.388.987-5.528,0a1.272,1.272,0,0,0-2.089,1.317L25.7,17.566C20.635,22.2,14.9,27.879,18.031,35.241a10.809,10.809,0,0,0,5.789,6.272A17.488,17.488,0,0,0,29.969,42.6a13.126,13.126,0,0,0,6.08-1.363,10.967,10.967,0,0,0,5.685-7.874l.037-.285A14.6,14.6,0,0,0,41.264,27.078Zm-.981,6.287c-.014.063-.03.123-.045.184-.077.344-.165.692-.272,1.052l.058-.228a8.738,8.738,0,0,1-4.588,5.679c-4.253,2.22-9.571.874-11.1.229a9.559,9.559,0,0,1-5-5.527l.007,0c-.08-.207-.152-.411-.218-.615s-.083-.3-.084-.308h-.006c-1.9-6.537,3.493-11.322,7.847-15.456h5.495c4.819,4.362,9.393,8.137,7.885,15.066Z" transform="translate(-17.141 -11.083)" fill="#475c6d"/>
            </g>
            <path id="Caminho_5102" data-name="Caminho 5102" d="M30.629,16.682h-5.3l-1.25-3.59h0v0c1.9,1.4,3.369-2.082,5.133-.314a2.153,2.153,0,0,0,2.658.308Z" transform="translate(-15.488 -10.802)" fill="#99aab1"/>
          </g>
        </g>
      </g>
    </g>
    <g id="Group_18" data-name="Group 18" transform="translate(1053.505 50.526)">
      <g id="_003-business-report" data-name="003-business-report" transform="translate(0 0)">
        <path id="Path_2" data-name="Path 2" d="M0,34.537H17.834l7.089-6.751V0h2.364L28.8,1.7V34.537l-.828,1.819-1.475.739-25.29-.06Z" transform="translate(4.322 2.403)" fill="#002b3e" opacity="0.4"/>
        <path id="Shape-2-2" data-name="Shape" d="M30.72,40.042H6.894a3.019,3.019,0,0,1-2.987-2.731H3a3,3,0,0,1-3-3V3A3,3,0,0,1,3,0H26.823a3.021,3.021,0,0,1,2.7,1.7H30.72a3,3,0,0,1,3,3V37.043A3,3,0,0,1,30.72,40.042ZM5.107,37.311a1.817,1.817,0,0,0,1.786,1.538H30.72a1.808,1.808,0,0,0,1.805-1.807V4.7A1.808,1.808,0,0,0,30.72,2.89h-.9V30.218a.6.6,0,0,1-.169.416l-6.32,6.5a.6.6,0,0,1-.43.18ZM3,1.193A1.808,1.808,0,0,0,1.192,3V34.313A1.808,1.808,0,0,0,3,36.119H22.31V31.3a1.681,1.681,0,0,1,1.679-1.678h4.642V3a1.809,1.809,0,0,0-1.808-1.805Zm20.99,29.621a.486.486,0,0,0-.486.486v3.948l4.312-4.434Z" transform="translate(0 0)" fill="#475c6d"/>
        <path id="Path-6" data-name="Path" d="M19.608.6a.6.6,0,0,0-.6-.6H.6a.6.6,0,1,0,0,1.193H19.012A.6.6,0,0,0,19.608.6Z" transform="translate(4.077 27.19)" fill="#475c6d"/>
        <path id="Path-7" data-name="Path" d="M.6,0a.6.6,0,1,0,0,1.193H13.675a.6.6,0,1,0,0-1.193Z" transform="translate(3.895 30.19)" fill="#475c6d"/>
        <path id="Path-8" data-name="Path" d="M0,.6a.6.6,0,0,0,.6.6H19.012a.6.6,0,0,0,0-1.193H.6A.6.6,0,0,0,0,.6Z" transform="translate(4.077 24.19)" fill="#475c6d"/>
        <path id="Path-9" data-name="Path" d="M0,.6a.6.6,0,0,0,.6.6H19.012a.6.6,0,0,0,0-1.193H.6A.6.6,0,0,0,0,.6Z" transform="translate(4.077 21.288)" fill="#475c6d"/>
        <path id="Path-10" data-name="Path" d="M19.608.6a.6.6,0,0,0-.6-.6H.6a.6.6,0,1,0,0,1.193H19.012A.6.6,0,0,0,19.608.6Z" transform="translate(4.077 18.425)" fill="#475c6d"/>
        <path id="Path-11" data-name="Path" d="M0,.6a.6.6,0,0,0,.6.6H19.012a.6.6,0,0,0,0-1.193H.6A.6.6,0,0,0,0,.6Z" transform="translate(4.077 15.425)" fill="#475c6d"/>
        <path id="Path-12" data-name="Path" d="M0,.6a.6.6,0,0,0,.6.6H19.012a.6.6,0,0,0,0-1.193H.6A.6.6,0,0,0,0,.6Z" transform="translate(4.077 12.523)" fill="#475c6d"/>
        <path id="Path-13" data-name="Path" d="M19.608.6a.6.6,0,0,0-.6-.6H.6a.6.6,0,1,0,0,1.193H19.012A.6.6,0,0,0,19.608.6Z" transform="translate(4.077 9.659)" fill="#475c6d"/>
        <path id="Path-14" data-name="Path" d="M0,.6a.6.6,0,0,0,.6.6H19.012a.6.6,0,0,0,0-1.193H.6A.6.6,0,0,0,0,.6Z" transform="translate(4.077 6.659)" fill="#475c6d"/>
      </g>
    </g>
    <g id="Grupo_20561" data-name="Grupo 20561" transform="translate(1632.545 45)">
      <g id="ic-ilustrativo-fundos_investimentos" transform="translate(0.455 0)">
        <path id="Caminho_5103" data-name="Caminho 5103" d="M46.27,33.667H24.334l2.058,8.778A3.049,3.049,0,0,0,29.359,44.8H41.566a3.049,3.049,0,0,0,2.991-2.458Z" transform="translate(-10.25 1.956)" fill="#002b3e" opacity="0.4"/>
        <circle id="Elipse_92" data-name="Elipse 92" cx="7.826" cy="7.826" r="7.826" transform="translate(9.921 3.694)" fill="none" stroke="#475c6d" stroke-miterlimit="10" stroke-width="1.08"/>
        <line id="Linha_75" data-name="Linha 75" x2="1.289" y2="16.123" transform="translate(18.329 18.802)" fill="none" stroke="#475c6d" stroke-miterlimit="10" stroke-width="1.08"/>
        <path id="Caminho_5104" data-name="Caminho 5104" d="M46.276,33.444H24.342L26.4,42.222a3.048,3.048,0,0,0,2.969,2.354H41.573a3.049,3.049,0,0,0,2.991-2.458Z" transform="translate(-10.248 1.902)" fill="none" stroke="#475c6d" stroke-linejoin="round" stroke-width="1.08"/>
        <g id="Group_6" data-name="Group 6" transform="translate(14.87 7.868)">
          <g id="Group_8" data-name="Group 8" transform="translate(0 0)">
            <path id="Rectangle-path-2" data-name="Rectangle-path" d="M29.292,18.636h-.9A2.723,2.723,0,0,1,25.68,15.9h0V14.071a2.722,2.722,0,0,1,2.707-2.739h.906" transform="translate(-24.793 -11.332)" fill="none" stroke="#475c6d" stroke-linecap="round" stroke-linejoin="round" stroke-width="1.08"/>
            <path id="Shape-2-3" data-name="Shape-2" d="M24.966,13.536h3.6" transform="translate(-24.966 -10.797)" fill="none" stroke="#475c6d" stroke-linecap="round" stroke-linejoin="round" stroke-width="1.08"/>
            <path id="Shape-3-2" data-name="Shape-3" d="M24.966,15.005h3.6" transform="translate(-24.966 -10.441)" fill="none" stroke="#475c6d" stroke-linecap="round" stroke-linejoin="round" stroke-width="1.08"/>
          </g>
        </g>
        <g id="Group_6-2" data-name="Group 6" transform="translate(31.566 14.337)">
          <g id="Group_8-2" data-name="Group 8">
            <path id="Rectangle-path-3" data-name="Rectangle-path" d="M42.728,23.842h-.906A2.723,2.723,0,0,1,39.116,21.1h0V19.278a2.722,2.722,0,0,1,2.707-2.74h.906" transform="translate(-38.229 -16.538)" fill="none" stroke="#475c6d" stroke-linecap="round" stroke-linejoin="round" stroke-width="1.08"/>
            <path id="Shape-2-4" data-name="Shape-2" d="M38.4,18.742H42" transform="translate(-38.402 -16.003)" fill="none" stroke="#475c6d" stroke-linecap="round" stroke-linejoin="round" stroke-width="1.08"/>
            <path id="Shape-3-3" data-name="Shape-3" d="M38.4,20.211H42" transform="translate(-38.402 -15.647)" fill="none" stroke="#475c6d" stroke-linecap="round" stroke-linejoin="round" stroke-width="1.08"/>
          </g>
        </g>
        <path id="Retângulo_1028" data-name="Retângulo 1028" d="M4.2,0H5.218a0,0,0,0,1,0,0V4.549a4.2,4.2,0,0,1-4.2,4.2H0a0,0,0,0,1,0,0V4.2A4.2,4.2,0,0,1,4.2,0Z" transform="translate(24.476 30.227) rotate(175.429)" fill="none" stroke="#475c6d" stroke-linejoin="round" stroke-width="1.08"/>
        <path id="Retângulo_1029" data-name="Retângulo 1029" d="M4.2,0H5.218a0,0,0,0,1,0,0V3.25a4.2,4.2,0,0,1-4.2,4.2H0a0,0,0,0,1,0,0V4.2A4.2,4.2,0,0,1,4.2,0Z" transform="translate(36.072 35.032) rotate(-141.812)" fill="none" stroke="#475c6d" stroke-linejoin="round" stroke-width="1.08"/>
        <circle id="Elipse_93" data-name="Elipse 93" cx="7.826" cy="7.826" r="7.826" transform="translate(25.016 23.86) rotate(-76.79)" fill="none" stroke="#475c6d" stroke-miterlimit="10" stroke-width="1.08"/>
        <line id="Linha_76" data-name="Linha 76" x1="0.759" y2="9.415" transform="translate(31.307 25.627)" fill="none" stroke="#475c6d" stroke-miterlimit="10" stroke-width="1.08"/>
        <rect id="Retângulo_1030" data-name="Retângulo 1030" width="49" height="49" fill="none"/>
        <path id="Retângulo_1031" data-name="Retângulo 1031" d="M0,0H1.019a4.2,4.2,0,0,1,4.2,4.2V8.748a0,0,0,0,1,0,0H4.2A4.2,4.2,0,0,1,0,4.549V0A0,0,0,0,1,0,0Z" transform="translate(13.33 24.647) rotate(-4.571)" fill="none" stroke="#475c6d" stroke-linejoin="round" stroke-width="1.08"/>
      </g>
    </g>
    <g id="Grupo_20562" data-name="Grupo 20562" transform="translate(1338.686 45)">
      <g id="ic-ilustrativo-seguros" transform="translate(0.314 0)">
        <path id="Caminho_5096" data-name="Caminho 5096" d="M19,24.609s1.243-12.427,16.329-13.333c12.235-.733,16.083,12.9,16.653,14.36,0,0-4.4-7.241-10.857,0,0,0-5.97-6-11.415,0C29.709,25.637,25.213,19.639,19,24.609Z" transform="translate(-11.544 -3.484)" fill="#002b3e" opacity="0.4"/>
        <g id="Group-3" data-name="Group" transform="translate(23.788 26.773)">
          <path id="Path-15" data-name="Path" d="M46.531,42.28s.636-.338.933-.534A8.3,8.3,0,0,0,51.093,36.3a8.019,8.019,0,0,0,.132-1.443,8.431,8.431,0,0,0-8.547-8.315h0a8.675,8.675,0,0,0-4.859,1.473,6.592,6.592,0,0,0-1.276,1.033" transform="translate(-31.075 -26.545)" fill="none" stroke="#475c6d" stroke-miterlimit="10" stroke-width="1.08"/>
          <g id="Oval-2" data-name="Oval" transform="translate(0 1.878)">
            <circle id="Elipse_84" data-name="Elipse 84" cx="8.612" cy="8.612" r="8.612" fill="none" stroke="#475c6d" stroke-miterlimit="10" stroke-width="1.08"/>
          </g>
          <path id="Rectangle-path-4" data-name="Rectangle-path" d="M41.149,40H40.1a3.147,3.147,0,0,1-3.146-3.146h0v-2.1A3.147,3.147,0,0,1,40.1,31.61h1.05" transform="translate(-30.975 -25.316)" fill="none" stroke="#475c6d" stroke-linecap="round" stroke-linejoin="round" stroke-width="1.08"/>
          <path id="Shape-2-5" data-name="Shape-2" d="M36.109,34.143h4.2" transform="translate(-31.18 -24.702)" fill="none" stroke="#475c6d" stroke-linecap="round" stroke-linejoin="round" stroke-width="1.08"/>
          <path id="Shape-3-4" data-name="Shape-3" d="M36.109,35.831h4.2" transform="translate(-31.18 -24.292)" fill="none" stroke="#475c6d" stroke-linecap="round" stroke-linejoin="round" stroke-width="1.08"/>
        </g>
        <rect id="Retângulo_1013" data-name="Retângulo 1013" width="49" height="49" fill="none"/>
        <g id="Grupo_7409" data-name="Grupo 7409" transform="translate(6.428 4.377)">
          <path id="Caminho_5097" data-name="Caminho 5097" d="M47.913,16.651a17.466,17.466,0,0,0-11.2-5.085l-.58-.039V9.144a.621.621,0,0,0-.608-.621.69.69,0,0,0-.437.184.615.615,0,0,0-.171.426v2.4l-.58.039A17.553,17.553,0,0,0,18.179,26.68a.761.761,0,0,0,.15.562.749.749,0,0,0,.5.292l.138.007a.742.742,0,0,0,.67-.466,5.025,5.025,0,0,1,9.149-.225,1.232,1.232,0,0,0,1.1.69,1.248,1.248,0,0,0,1.121-.7,5.049,5.049,0,0,1,3.113-2.63l.8-.231v18.1a3.692,3.692,0,0,1-7.384.04.629.629,0,0,0-.626-.623.605.605,0,0,0-.589.614,4.91,4.91,0,0,0,9.82,0V23.989l.8.231a5.051,5.051,0,0,1,3.118,2.631,1.232,1.232,0,0,0,.572.572,1.2,1.2,0,0,0,.943.057,1.238,1.238,0,0,0,.71-.629A5.078,5.078,0,0,1,46.8,24.014a5.031,5.031,0,0,1,4.619,3.059.762.762,0,0,0,1.464-.293l-.01-.14A17.616,17.616,0,0,0,47.913,16.651ZM29.427,23.938l-.1,1.23-.928-.816A6.247,6.247,0,0,0,24.27,22.8a6.344,6.344,0,0,0-2.89.7c-.385.2-1.543.9-1.543.9l.686-1.7a16.412,16.412,0,0,1,10.84-9.415l1.476-.4-.779,1.315a10.5,10.5,0,0,0-.557,1.085A29.283,29.283,0,0,0,29.427,23.938Zm9.938.169A6.34,6.34,0,0,0,35.532,22.8a6.26,6.26,0,0,0-3.83,1.3l-1.153.9.153-1.451a34.337,34.337,0,0,1,.727-4.262,13.326,13.326,0,0,1,2.651-5.8,1.729,1.729,0,0,1,1.122-.711,1.816,1.816,0,0,1,1.343.281,1.856,1.856,0,0,1,.5.517,13.187,13.187,0,0,1,2.6,5.773,34.391,34.391,0,0,1,.718,4.2L40.518,25Zm10.319-.6a6.156,6.156,0,0,0-7.017.856l-.927.816-.1-1.23a29.473,29.473,0,0,0-2.088-8.68,10.2,10.2,0,0,0-.543-1.051l-.783-1.314,1.479.4A16.411,16.411,0,0,1,50.54,22.711l.686,1.69S50.075,23.723,49.684,23.51Z" transform="translate(-18.173 -8.523)" fill="#475c6d" stroke="#475c6d" stroke-miterlimit="10" stroke-width="0.1"/>
        </g>
      </g>
    </g>
    <line id="Linha_328" data-name="Linha 328" x2="393.5" transform="translate(16.5 688)" fill="none" stroke="#abb8c1" stroke-width="1"/>
    <text id="Informação_Financeira" data-name="Informação Financeira" transform="translate(1103 65)" fill="#002b3e" font-size="18" font-family="Arial-BoldMT, Arial" font-weight="700" letter-spacing="-0.02em"><tspan x="0" y="0">Informação Financeira</tspan></text>
    <text id="Rentabilidade" transform="translate(1693 65)" fill="#002b3e" font-size="18" font-family="Arial-BoldMT, Arial" font-weight="700" letter-spacing="-0.02em"><tspan x="0" y="0">Rentabilidade</tspan></text>
    <text id="Mov._Financeiro" data-name="Mov. Financeiro" transform="translate(513 65)" fill="#002b3e" font-size="18" font-family="Arial-BoldMT, Arial" font-weight="700" letter-spacing="-0.02em"><tspan x="0" y="0">Mov. Financeiro</tspan></text>
    <text id="Risco" transform="translate(1398 65)" fill="#002b3e" font-size="18" font-family="Arial-BoldMT, Arial" font-weight="700" letter-spacing="-0.02em"><tspan x="0" y="0">Risco</tspan></text>
    <text id="Exposição_novobanco_BdP" data-name="Exposição novobanco/BdP" transform="translate(808 65)" fill="#002b3e" font-size="18" font-family="Arial-BoldMT, Arial" font-weight="700"><tspan x="0" y="0">Exposição novobanco</tspan><tspan x="0" y="21">/BdP</tspan></text>
    <g id="Grupo_26036" data-name="Grupo 26036" transform="translate(-1 76)" style="isolation: isolate">
      <g id="Rectangle_4" data-name="Rectangle 4" transform="translate(18 709)" fill="rgba(255,255,255,0)">
        <path d="M 187 55.25 L 8 55.25 C 4.002325057983398 55.25 0.75 51.99767684936523 0.75 48 L 0.75 8 C 0.75 4.002325057983398 4.002325057983398 0.75 8 0.75 L 187 0.75 C 190.9976806640625 0.75 194.25 4.002325057983398 194.25 8 L 194.25 48 C 194.25 51.99767684936523 190.9976806640625 55.25 187 55.25 Z" stroke="none"/>
        <path d="M 8 1.5 C 4.4158935546875 1.5 1.5 4.415901184082031 1.5 8 L 1.5 48 C 1.5 51.58409881591797 4.4158935546875 54.5 8 54.5 L 187 54.5 C 190.5841064453125 54.5 193.5 51.58409881591797 193.5 48 L 193.5 8 C 193.5 4.415901184082031 190.5841064453125 1.5 187 1.5 L 8 1.5 M 8 0 L 187 0 C 191.4182739257812 0 195 3.58172607421875 195 8 L 195 48 C 195 52.41827392578125 191.4182739257812 56 187 56 L 8 56 C 3.58172607421875 56 0 52.41827392578125 0 48 L 0 8 C 0 3.58172607421875 3.58172607421875 0 8 0 Z" stroke="none" fill="#009f98"/>
      </g>
      <text id="Guardar" transform="translate(57 729)" fill="#009f98" font-size="16" font-family="Arial-BoldMT, Arial" font-weight="700"><tspan x="0" y="14">DUADC</tspan></text>
      <path id="Shape-3-5" data-name="Shape" d="M0,0H12.624V12.617H0Z" transform="translate(46 731.999)" fill="none"/>
      <g id="Grupo_26034" data-name="Grupo 26034" transform="translate(27 723.991)">
        <g id="ICONS_Funcionais_ic-actualizar_black" data-name="ICONS/Funcionais/ic-actualizar/black">
          <path id="Shape-4" data-name="Shape" d="M0,0H23.754V23.758H0Z" fill="none"/>
          <g id="ic-clipboard" transform="translate(0 0.009)">
            <g id="Grupo_8498" data-name="Grupo 8498" clip-path="url(#clip-path)">
              <g id="Grupo_8511" data-name="Grupo 8511" transform="translate(0 -0.496)">
                <path id="Caminho_5773" data-name="Caminho 5773" d="M19.721,17.628H12.279a.7.7,0,1,1,0-1.4h7.442a.7.7,0,0,1,0,1.4" transform="translate(-4 -2)" fill="#009f98"/>
                <path id="Caminho_5774" data-name="Caminho 5774" d="M19.721,21.348H12.279a.7.7,0,1,1,0-1.4h7.442a.7.7,0,0,1,0,1.4" transform="translate(-4 -2)" fill="#009f98"/>
                <path id="Caminho_5775" data-name="Caminho 5775" d="M14.139,13.907h-1.86a.7.7,0,0,1,0-1.4h1.86a.7.7,0,0,1,0,1.4" transform="translate(-4 -2)" fill="#009f98"/>
                <path id="Caminho_5776" data-name="Caminho 5776" d="M12.648,7.395h-2.23A1.164,1.164,0,0,0,9.255,8.558V23.442A1.164,1.164,0,0,0,10.418,24.6H21.581a1.165,1.165,0,0,0,1.163-1.163V9l0-.442a1.165,1.165,0,0,0-1.163-1.163H19.148L19.2,6h2.373a2.562,2.562,0,0,1,2.558,2.558V23.442A2.562,2.562,0,0,1,21.576,26H10.418A2.562,2.562,0,0,1,7.86,23.442V8.558A2.562,2.562,0,0,1,10.418,6h2.23Z" transform="translate(-4 -2)" fill="#009f98"/>
                <path id="Caminho_5777" data-name="Caminho 5777" d="M18.75,8.947h-5.7A1.149,1.149,0,0,1,11.9,7.8V5.445A1.149,1.149,0,0,1,13.046,4.3h.944a2.05,2.05,0,0,1,3.816,0h.944A1.149,1.149,0,0,1,19.9,5.445V7.8A1.149,1.149,0,0,1,18.75,8.947M13.4,7.447h5V5.8h-1.95v-.75a.55.55,0,0,0-1.1,0V5.8H13.4Z" transform="translate(-4 -2)" fill="#009f98"/>
              </g>
            </g>
          </g>
        </g>
      </g>
      <g id="Rectangle_4-2" data-name="Rectangle 4" transform="translate(230 709)" fill="rgba(255,255,255,0)" stroke="#808b94" stroke-miterlimit="10" stroke-width="1.5">
        <rect width="180" height="56" rx="8" stroke="none"/>
        <rect x="0.75" y="0.75" width="178.5" height="54.5" rx="7.25" fill="none"/>
      </g>
      <text id="Guardar-2" data-name="Guardar" transform="translate(273 729)" fill="#808b94" font-size="16" font-family="Arial-BoldMT, Arial" font-weight="700"><tspan x="0" y="14">Documentação</tspan></text>
      <g id="Grupo_26033" data-name="Grupo 26033" transform="translate(1 158)">
        <g id="Grupo_20552" data-name="Grupo 20552" transform="translate(242.675 566.956)">
          <path id="Caminho_2999" data-name="Caminho 2999" d="M0,0H21.311V24.088H0Z" transform="translate(0 0)" fill="none" fill-rule="evenodd"/>
          <g id="Grupo_5092" data-name="Grupo 5092" transform="translate(2.884 2.102)">
            <path id="Caminho_3000" data-name="Caminho 3000" d="M8.743,0h-6.8A1.966,1.966,0,0,0,0,1.988V17.9a1.966,1.966,0,0,0,1.943,1.988H13.6A1.966,1.966,0,0,0,15.543,17.9V6.96Z" fill="none" stroke="#808b94" stroke-linecap="round" stroke-linejoin="round" stroke-width="1.3" fill-rule="evenodd"/>
            <path id="Caminho_3001" data-name="Caminho 3001" d="M9,0V7.356h7.356" transform="translate(-0.813)" fill="none" stroke="#808b94" stroke-linecap="round" stroke-linejoin="round" stroke-width="1.3" fill-rule="evenodd"/>
          </g>
          <line id="Linha_90" data-name="Linha 90" x2="9.458" transform="translate(7.112 12.797)" fill="none" stroke="#808b94" stroke-width="1.3"/>
          <line id="Linha_91" data-name="Linha 91" x2="9.458" transform="translate(7.112 15.808)" fill="none" stroke="#808b94" stroke-width="1.3"/>
          <line id="Linha_92" data-name="Linha 92" x2="1.455" transform="translate(5.268 12.797)" fill="none" stroke="#808b94" stroke-width="1.3"/>
          <line id="Linha_93" data-name="Linha 93" x2="1.455" transform="translate(5.268 15.808)" fill="none" stroke="#808b94" stroke-width="1.3"/>
        </g>
      </g>
    </g>
    <g id="Grupo_26037" data-name="Grupo 26037" transform="translate(0 62)">
      <g id="Rectangle_4-3" data-name="Rectangle 4" transform="translate(17 651)" fill="rgba(255,255,255,0)" stroke="#009f98" stroke-miterlimit="10" stroke-width="1.5">
        <rect width="392" height="56" rx="8" stroke="none"/>
        <rect x="0.75" y="0.75" width="390.5" height="54.5" rx="7.25" fill="none"/>
      </g>
      <text id="Guardar-3" data-name="Guardar" transform="translate(70 671)" fill="#009f98" font-size="16" font-family="Arial-BoldMT, Arial" font-weight="700"><tspan x="0" y="14">Sócios / Acionistas e Participadas</tspan></text>
      <path id="Shape-5" data-name="Shape" d="M0,0H12.624V12.617H0Z" transform="translate(45 673.999)" fill="none"/>
      <g id="Grupo_26035" data-name="Grupo 26035" transform="translate(33 665.756)">
        <g id="ICONS_Funcionais_ic-actualizar_black-2" data-name="ICONS/Funcionais/ic-actualizar/black" transform="translate(0 0.011)">
          <path id="Shape-6" data-name="Shape" d="M0,0H27.478V27.478H0Z" fill="none"/>
          <g id="Grupo_19256" data-name="Grupo 19256" transform="translate(1.145 4.968)">
            <g id="Grupo_19254" data-name="Grupo 19254" transform="translate(0 0)">
              <g id="Grupo_19253" data-name="Grupo 19253" clip-path="url(#clip-path-2)">
                <path id="Caminho_21129" data-name="Caminho 21129" d="M.576,1.154H9.713l-2.2,2.2A1.756,1.756,0,0,0,7.061,5.3,2.156,2.156,0,0,0,8.639,6.451a4.8,4.8,0,0,0,4.053-1.521h2.919L21.278,10.6a.779.779,0,0,1-1.1,1.1L16.528,8.046a.577.577,0,0,0-.815.815l4.155,4.155a.779.779,0,0,1-1.1,1.1L14.612,9.962a.577.577,0,0,0-.815.815l3.572,3.572a.785.785,0,0,1-.548,1.33.772.772,0,0,1-.55-.228h0L12.7,11.877a.577.577,0,0,0-.815.815l2.992,2.992a.779.779,0,0,1-1.1,1.1l-.391-.39a1.935,1.935,0,0,0-1.529-2.809,1.921,1.921,0,0,0-1.539-2.059,1.936,1.936,0,0,0-1.781-2.36A1.936,1.936,0,0,0,5.25,7.714L3.184,9.781a1.918,1.918,0,0,0-.536,1.066H.557A.576.576,0,0,0,.557,12H2.826a1.916,1.916,0,0,0,1.539,1.069,1.929,1.929,0,0,0,2.18,2.085,1.944,1.944,0,0,0,2.549,1.567,1.924,1.924,0,0,0,3.227.877l.318-.318.318.318a1.941,1.941,0,0,0,3.225-.877,1.945,1.945,0,0,0,2.505-1.336,1.933,1.933,0,0,0,2.473-2.363A1.9,1.9,0,0,0,22.451,12h2.19a.577.577,0,0,0,0-1.153H22.629a1.916,1.916,0,0,0-.536-1.066L16.258,3.945a.576.576,0,0,0-.408-.169H12.459c-.329,0-.533.3-.758.5a5.466,5.466,0,0,1-.819.6,3.438,3.438,0,0,1-1.324.47,2.159,2.159,0,0,1-.741-.032c-.581-.137-.993-.637-.486-1.143l2.724-2.724a1,1,0,0,1,.813-.289H24.622a.576.576,0,0,0,0-1.152H.576a.576.576,0,1,0,0,1.153M4,11.7a.78.78,0,0,1,0-1.1L6.065,8.529a.779.779,0,0,1,1.1,1.1L5.1,11.7a.8.8,0,0,1-1.1,0Zm1.729,2.1a.779.779,0,0,1,0-1.1l2.161-2.16a.779.779,0,0,1,1.1,1.1L6.827,13.8a.779.779,0,0,1-1.1,0m3.28,1.65a.773.773,0,0,1-.55.229h0a.784.784,0,0,1-.55-1.328l1.485-1.485a.778.778,0,0,1,1.1,1.1Zm2.5,1.334a.779.779,0,0,1-1.1-1.1l.732-.731a.778.778,0,1,1,1.1,1.1l-.727.727Z" transform="translate(0 -0.001)" fill="#009f98" stroke="#009f98" stroke-width="0.2"/>
              </g>
            </g>
          </g>
        </g>
        <g id="Grupo_19230" data-name="Grupo 19230" transform="translate(0.551)">
          <g id="ICONS_Funcionais_ic-actualizar_black-3" data-name="ICONS/Funcionais/ic-actualizar/black" transform="translate(0)">
            <path id="Shape-7" data-name="Shape" d="M0,0H27.478V27.478H0Z" fill="none"/>
          </g>
        </g>
      </g>
    </g>
    <g id="Grupo_26046" data-name="Grupo 26046">
      <text id="Abrir_nova_instancia_da_PIC" data-name="Abrir nova instancia da PIC" transform="translate(17 995)" fill="#009f98" font-size="16" font-family="ArialMT, Arial" text-decoration="underline"><tspan x="0" y="0">Abrir nova instancia da PIC</tspan></text>
      <g id="ic-external_link" transform="translate(221 977)">
        <path id="Shape-8" data-name="Shape" d="M0,0H24V24H0Z" fill="none"/>
        <g id="external-link" transform="translate(3 3)">
          <path id="Path-16" data-name="Path" d="M13,15.75H2A2.753,2.753,0,0,1-.75,13V2A2.753,2.753,0,0,1,2-.75H8A.75.75,0,0,1,8.75,0,.75.75,0,0,1,8,.75H2A1.251,1.251,0,0,0,.75,2V13A1.251,1.251,0,0,0,2,14.25H13A1.251,1.251,0,0,0,14.25,13V7a.75.75,0,0,1,1.5,0v6A2.753,2.753,0,0,1,13,15.75Z" transform="translate(0 3)" fill="#009f98"/>
          <path id="Path-17" data-name="Path" d="M6,6.75A.75.75,0,0,1,5.25,6V.75H0A.75.75,0,0,1-.75,0,.75.75,0,0,1,0-.75H6A.75.75,0,0,1,6.75,0V6A.75.75,0,0,1,6,6.75Z" transform="translate(12)" fill="#009f98"/>
          <path id="Path-18" data-name="Path" d="M0,11.75a.748.748,0,0,1-.53-.22.75.75,0,0,1,0-1.061l11-11a.75.75,0,0,1,1.061,0,.75.75,0,0,1,0,1.061l-11,11A.748.748,0,0,1,0,11.75Z" transform="translate(7)" fill="#009f98"/>
        </g>
      </g>
    </g>
  </g>
</svg>
